<svg width="52" height="52" viewBox="0 0 52 52" fill="none" xmlns="http://www.w3.org/2000/svg">
<g filter="url(#filter0_d_1_658)">
<path d="M48 22C48 28.0751 45.5376 33.5751 41.5564 37.5564C37.5751 41.5376 32.0751 44 26 44C19.9249 44 14.4249 41.5376 10.4437 37.5564C6.46243 33.5751 4 28.0751 4 22C4 15.9249 6.46243 10.4249 10.4437 6.44365C14.4249 2.46243 19.9249 0 26 0C32.0751 0 37.5751 2.46243 41.5564 6.44365C45.5376 10.4249 48 15.9249 48 22Z" fill="white" fill-opacity="0.1"/>
<g clip-path="url(#clip0_1_658)">
<path d="M35.995 32.0001V31.9993H36V24.6643C36 21.0759 35.2275 18.3118 31.0325 18.3118C29.0158 18.3118 27.6625 19.4184 27.11 20.4676H27.0517V18.6468H23.0742V31.9993H27.2158V25.3876C27.2158 23.6468 27.5458 21.9634 29.7017 21.9634C31.8258 21.9634 31.8575 23.9501 31.8575 25.4993V32.0001H35.995Z" fill="white"/>
<path d="M16.33 18.6475H20.4767V32H16.33V18.6475Z" fill="white"/>
<path d="M18.4017 12C17.0758 12 16 13.0758 16 14.4017C16 15.7275 17.0758 16.8258 18.4017 16.8258C19.7275 16.8258 20.8033 15.7275 20.8033 14.4017C20.8025 13.0758 19.7267 12 18.4017 12V12Z" fill="white"/>
</g>
</g>
<defs>
<filter id="filter0_d_1_658" x="0" y="0" width="52" height="52" filterUnits="userSpaceOnUse" color-interpolation-filters="sRGB">
<feFlood flood-opacity="0" result="BackgroundImageFix"/>
<feColorMatrix in="SourceAlpha" type="matrix" values="0 0 0 0 0 0 0 0 0 0 0 0 0 0 0 0 0 0 127 0" result="hardAlpha"/>
<feOffset dy="4"/>
<feGaussianBlur stdDeviation="2"/>
<feComposite in2="hardAlpha" operator="out"/>
<feColorMatrix type="matrix" values="0 0 0 0 0 0 0 0 0 0 0 0 0 0 0 0 0 0 0.25 0"/>
<feBlend mode="normal" in2="BackgroundImageFix" result="effect1_dropShadow_1_658"/>
<feBlend mode="normal" in="SourceGraphic" in2="effect1_dropShadow_1_658" result="shape"/>
</filter>
<clipPath id="clip0_1_658">
<rect width="20" height="20" fill="white" transform="translate(16 12)"/>
</clipPath>
</defs>
</svg>
